<svg xmlns="http://www.w3.org/2000/svg" width="640" height="400" viewBox="0 0 640 400"><rect width="640" height="400" fill="#edf0fa"/><defs><pattern id="grid" width="25" height="25" patternUnits="userSpaceOnUse"><circle cx="1" cy="1" r=".8" fill="#66689a" opacity=".12"/></pattern></defs><rect width="640" height="400" fill="url(#grid)"/><circle cx="47" cy="365" r="145" fill="#b8c1e2" opacity=".18"/><circle cx="610" cy="22" r="167" fill="#b8c1e2" opacity=".2"/><rect x="136" y="84" width="368" height="230" rx="20" fill="#fff" opacity=".87"/><path d="M136 126h368" stroke="#b8c1e2" stroke-width="2"/><g fill="#66689a" opacity=".4"><circle cx="162" cy="107" r="5"/><circle cx="180" cy="107" r="5"/><circle cx="198" cy="107" r="5"/></g><path d="m242 175-43 42 43 42m157-84 43 42-43 42m-56-104-32 120" stroke="#66689a" fill="none" stroke-width="13" stroke-linecap="round" stroke-linejoin="round"/><rect x="473" y="260" width="58" height="58" rx="17" fill="#f4dcc5" transform="rotate(15 500 280)"/><text x="27" y="371" font-family="sans-serif" font-size="9" letter-spacing="3" fill="#66689a" opacity=".6">CHENGYU / FIELD NOTES</text><text x="583" y="40" font-family="sans-serif" font-size="11" letter-spacing="2" fill="#66689a" opacity=".5">02</text></svg>